<svg width="16" height="16" viewBox="0 0 16 16" fill="none" xmlns="http://www.w3.org/2000/svg">
<path d="M6.66675 13.3333H9.33341C9.33341 14.0696 8.73646 14.6666 8.00008 14.6666C7.2637 14.6666 6.66675 14.0696 6.66675 13.3333Z" fill="#F8AD1F"/>
<path d="M8.66967 2.66675H7.33049L6.64624 2.91289C5.05874 3.48396 4.00021 4.98967 4.00021 6.67677V8.89033C4.00021 9.37949 3.77021 9.84018 3.37924 10.1341C2.01432 11.1604 2.74012 13.3334 4.4478 13.3334H11.5526C13.2602 13.3334 13.9861 11.1604 12.6212 10.1342C12.2302 9.84019 12.0002 9.3795 12.0002 8.89035V6.67684C12.0002 4.9897 10.9416 3.48396 9.35408 2.91293L8.66967 2.66675Z" fill="white"/>
<path d="M7.33325 1.99992C7.33325 1.63173 7.63173 1.33325 7.99992 1.33325C8.36811 1.33325 8.66659 1.63173 8.66659 1.99992V2.66659H7.33325V1.99992Z" fill="#F8AD1F"/>
</svg>
