<svg width="24" height="24" viewBox="0 0 24 24" fill="none" xmlns="http://www.w3.org/2000/svg">
<path fill-rule="evenodd" clip-rule="evenodd" d="M15.9162 10.4164L16.7181 9.40645C17.0852 8.92988 17.2157 8.3789 17.0933 7.81788C16.9873 7.30787 16.6773 6.82293 16.2123 6.45505L15.0785 5.54372C14.0915 4.74943 12.8679 4.83304 12.1663 5.74438L11.393 6.71341C11.3115 6.81708 11.3253 6.96591 11.4265 7.04951C11.6784 7.25541 12.1689 7.65666 12.7381 8.12222C13.7337 8.93656 14.9697 9.94764 15.5899 10.4541C15.6903 10.536 15.8355 10.5193 15.9162 10.4164ZM13.7716 17.4081H18.1611C18.5893 17.4081 18.9376 17.7651 18.9376 18.204C18.9376 18.6438 18.5893 19 18.1611 19H13.7716C13.3434 19 12.9951 18.6438 12.9951 18.204C12.9951 17.7651 13.3434 17.4081 13.7716 17.4081Z" fill="#CDCDD0"/>
<path fill-rule="evenodd" clip-rule="evenodd" d="M10.7133 8.05221L14.8849 11.4656C14.9855 11.5472 15.0027 11.697 14.9242 11.8013L9.97857 18.3267C9.66768 18.7298 9.20953 18.9579 8.71865 18.9663L6.01882 19C5.87483 19.0017 5.74884 18.9007 5.71611 18.7559L5.10251 16.0545C4.99616 15.558 5.10251 15.0447 5.4134 14.6491L10.3835 8.09261C10.4637 7.98741 10.6118 7.9689 10.7133 8.05221" fill="#040415"/>
</svg>
